<?xml version="1.0" encoding="UTF-8" standalone="no"?>
<!-- Created with Inkscape (http://www.inkscape.org/) -->

<svg
   version="1.1"
   id="svg1"
   width="400.28778"
   height="142.67429"
   viewBox="0 0 400.28778 142.67429"
   xmlns="http://www.w3.org/2000/svg"
   xmlns:svg="http://www.w3.org/2000/svg">
  <defs
     id="defs1" />
  <g
     id="g1"
     transform="translate(-1005.2486,-45.363501)">
    <path
       style="fill:#000000"
       d="m 1016.0572,187.47012 c -2.3769,-0.84586 -5.3011,-3.51327 -6.4835,-5.9141 l -0.9768,-1.98339 -0.119,-27.32925 -0.1191,-27.32925 0.9562,0.61124 c 2.8621,1.82966 4.4111,1.93813 27.7144,1.94057 14.9314,0.002 22.7604,0.15406 23.8858,0.46524 1.2513,0.34598 2.7509,1.52152 5.9367,4.65398 3.7345,3.67192 4.3955,4.15769 5.3365,3.92153 0.966,-0.24245 1.0739,-0.47118 1.0739,-2.27483 0,-1.99078 -0.031,-2.03606 -4.327,-6.26328 -2.3798,-2.3419 -5.0106,-4.54364 -5.8462,-4.89276 -1.2957,-0.54138 -4.9275,-0.63477 -24.686,-0.63477 -25.6851,0 -25.9108,-0.0207 -29.0007,-2.66558 -0.9181,-0.78584 -2.2283,-2.43811 -2.9115,-3.67171 l -1.2423,-2.24291 v -14.021296 -14.0213 l 1.0933,-2.09274 c 1.3285,-2.54297 4.7288,-5.43724 7.1668,-6.10015 1.2186,-0.33134 6.3838,-0.46317 16.278,-0.41543 l 14.4931,0.0699 0.3039,-4.52027 c 0.5684,-8.45331 1.4292,-11.42095 4.8194,-16.61408 3.2222,-4.93597 8.3229,-8.49775 14.4253,-10.07301 3.6462,-0.94125 34.8581,-0.94699 38.5396,-0.007 4.2614,1.08793 7.6051,3.00536 11.1547,6.39659 5.5535,5.30581 7.8506,11.23532 7.8652,20.30202 l 0.01,4.5247 15.3816,-0.0958 c 15.0816,-0.0939 15.4224,-0.0777 17.4743,0.83242 2.4718,1.09631 4.9469,3.36859 6.209,5.70016 0.8689,1.60507 0.9115,2.24387 1.0326,15.4738 0.1112,12.155436 0.042,14.020676 -0.5824,15.655126 -0.937,2.4536 -3.1847,4.88092 -5.7955,6.25885 -2.115,1.11622 -2.1412,1.11876 -12.8635,1.2486 l -10.7441,0.13011 -1.9169,2.04933 c -1.0543,1.12713 -1.9169,2.25579 -1.9169,2.50813 0,0.32551 3.7391,0.42192 12.8703,0.33184 l 12.8703,-0.12696 2.4184,-1.13321 2.4183,-1.13321 -0.1163,27.08309 -0.1164,27.08308 -1.1731,2.38903 c -1.1681,2.37869 -2.922,4.09514 -5.7329,5.61064 -1.4163,0.76358 -3.6539,0.79227 -67.386,0.86406 -57.3876,0.0647 -66.1473,-0.006 -67.6688,-0.5477 z m 67.21,-27.24144 c 9.821,-9.98732 42.9146,-44.45232 45.1474,-47.01842 2.5818,-2.96718 2.2674,-4.26008 -2.2122,-9.09855 -3.005,-3.24568 -4.1371,-3.81418 -6.0323,-3.02919 -0.6706,0.27777 -11.5747,11.29335 -24.4913,24.74165 -12.8054,13.33252 -23.4651,24.24095 -23.6882,24.24095 -0.2232,0 -3.5598,-3.22384 -7.4147,-7.16409 -3.855,-3.94024 -7.4486,-7.3318 -7.9858,-7.53679 -1.3367,-0.51007 -2.5348,0.31148 -6.2432,4.281 -4.3095,4.61308 -4.2786,4.91225 1.1093,10.74631 2.2791,2.46777 7.5176,7.82999 11.6411,11.91605 7.1375,7.07266 7.5764,7.42986 9.1451,7.44301 1.6007,0.0134 1.9155,-0.25845 11.0248,-9.52193 z m 24.864,-87.039026 c -0.1376,-6.62281 -1.4485,-9.52263 -5.5296,-12.23236 l -2.2704,-1.50747 h -16.9874 -16.9875 l -2.2908,1.29938 c -2.7473,1.55827 -4.7702,4.28277 -5.4162,7.29471 -0.4934,2.30086 -0.6217,8.46902 -0.1852,8.90553 0.1482,0.14821 11.4019,0.22668 25.0082,0.1744 l 24.7387,-0.0951 z m 81.6717,111.856716 c -0.7874,-0.57683 -0.8125,-1.31421 -0.8125,-23.89765 0,-20.48322 0.077,-23.344 0.6401,-23.6458 0.3521,-0.18883 2.9704,-0.31186 5.8185,-0.2734 l 5.1783,0.0699 1.7291,3.34837 c 0.9511,1.84161 3.5555,6.6589 5.7877,10.70511 2.2322,4.0462 4.468,8.28218 4.9683,9.41327 0.7768,1.75605 0.9576,1.93481 1.2377,1.22346 1.3998,-3.55546 4.4309,-10.02101 7.8467,-16.73783 l 4.0442,-7.95238 5.5505,-0.11682 c 3.3557,-0.0706 5.8797,0.0593 6.3829,0.32864 0.8155,0.43645 0.8323,0.91839 0.8323,23.8546 0,22.71557 -0.024,23.42198 -0.8096,23.84241 -0.4452,0.2383 -2.8787,0.43328 -5.4078,0.43328 h -4.5982 l -0.3047,-2.82519 c -0.3266,-3.02849 0.079,-22.70918 0.5009,-24.27569 0.4196,-1.55968 -0.3897,-1.05273 -1.8258,1.14374 -1.2314,1.88338 -3.413,6.59339 -7.5642,16.33057 -0.8341,1.9567 -1.7115,3.69602 -1.9497,3.86515 -0.7062,0.50136 -5.3729,0.35045 -6.4639,-0.20904 -0.7496,-0.38438 -1.6919,-2.12754 -3.6732,-6.79521 -4.5645,-10.75324 -5.6983,-13.24627 -6.4421,-14.16477 -0.7051,-0.87075 -0.7269,-0.83718 -1.0293,1.58354 -0.17,1.36023 -0.2164,7.44646 -0.1032,13.52495 l 0.2058,11.0518 -1.0128,0.38508 c -1.641,0.62394 -7.7896,0.47588 -8.726,-0.21012 z m 58.914,0.30953 c -1.0103,-0.13828 -1.5059,-0.49071 -1.8451,-1.31198 -0.586,-1.41871 -0.9688,-29.49117 -0.5419,-39.73741 l 0.3052,-7.32647 11.3581,0.28793 c 8.267,0.20957 11.8901,0.45852 13.3129,0.91475 4.1597,1.33379 8.1927,6.47967 8.6002,10.97314 0.1895,2.09055 0.051,2.86273 -0.8729,4.88186 -0.604,1.31918 -1.7701,3.01406 -2.5915,3.7664 l -1.4934,1.36788 1.4267,0.88176 c 1.5946,0.98549 4.5198,4.95124 5.259,7.12958 0.7507,2.21238 0.5772,5.61808 -0.4224,8.28968 -1.2161,3.25032 -4.7479,6.78861 -8.5951,8.61087 l -2.8468,1.34839 -9.8359,0.0563 c -5.4097,0.031 -10.4574,-0.0287 -11.2171,-0.13272 z m 19.8455,-11.1099 c 2.4026,-1.85427 3.0479,-3.56802 2.2519,-5.97995 -0.7701,-2.33347 -2.1507,-2.80084 -8.0996,-2.74194 -2.7851,0.0276 -5.2243,0.21067 -5.4205,0.40689 -0.274,0.27398 -0.5256,7.1756 -0.3257,8.93299 0.02,0.17265 2.3646,0.31391 5.2111,0.31391 4.7103,0 5.2839,-0.0837 6.3828,-0.9319 z m -0.676,-19.57687 c 0.6308,-0.63083 0.8371,-1.39516 0.8371,-3.1019 0,-2.0211 -0.1403,-2.38281 -1.3035,-3.36163 -1.2584,-1.0589 -1.4647,-1.09275 -5.9643,-0.97893 l -4.6608,0.11789 -0.1219,3.73152 c -0.088,2.70295 0.027,3.82604 0.4185,4.07442 0.2973,0.1886 2.6594,0.34578 5.2492,0.34931 4.1556,0.006 4.8069,-0.0919 5.5457,-0.83068 z m 16.7419,30.42322 c 0,-0.30206 0.3715,-1.31831 0.8257,-2.25832 0.4542,-0.94002 1.5045,-4.03602 2.3341,-6.88 4.1447,-14.20939 5.0557,-16.9968 7.7089,-23.58691 3.701,-9.19307 6.2239,-14.37411 7.2725,-14.93532 0.5106,-0.2733 2.3671,-0.36814 4.758,-0.24307 4.8279,0.25252 5.4223,0.70314 7.2768,5.51678 0.717,1.86088 2.1404,5.34386 3.1631,7.73996 2.5631,6.00489 5.5978,15.1865 7.898,23.89534 1.0639,4.0285 2.2804,8.11061 2.7032,9.07133 0.4228,0.96073 0.6601,1.85537 0.5274,1.9881 -0.4219,0.42192 -9.7497,0.25938 -10.5788,-0.18435 -0.4374,-0.23411 -1.0043,-1.22293 -1.2597,-2.19737 -0.2554,-0.97443 -0.746,-2.76052 -1.0903,-3.96907 l -0.6259,-2.19737 h -8.4932 -8.4933 l -1.3476,3.76754 c -0.8097,2.26347 -1.7052,4.01792 -2.2432,4.39474 -1.2138,0.85019 -10.3357,0.91903 -10.3357,0.078 z m 27.4607,-18.59929 c -0.1209,-0.40285 -0.5965,-2.15904 -1.057,-3.90264 -0.708,-2.68115 -3.7002,-11.63495 -4.0171,-12.02065 -0.139,-0.16909 -5.2262,15.14734 -5.2262,15.73469 0,0.30519 1.3634,0.51974 3.8715,0.60921 2.1294,0.076 4.4964,0.1772 5.26,0.22498 1.147,0.0718 1.3503,-0.0406 1.1688,-0.64559 z m 22.722,18.46934 c -0.4856,-0.58487 -0.585,-4.67208 -0.585,-24.04397 0,-12.83662 0.136,-23.47541 0.3021,-23.64175 0.1662,-0.16634 5.4399,-0.12922 11.7193,0.0825 10.9724,0.36993 11.5069,0.42677 13.7192,1.45891 2.7833,1.29854 6.3514,4.4367 7.7273,6.79613 1.4967,2.56678 2.0987,6.72409 1.5286,10.55694 -0.5912,3.97535 -1.9117,6.56473 -5.0689,9.93974 -1.382,1.47742 -2.5128,2.84622 -2.5128,3.04178 0,0.43516 5.3022,9.38926 7.8046,13.18 1.0021,1.51802 1.822,2.88352 1.822,3.03446 0,0.45036 -8.5794,0.31067 -10.8519,-0.17669 -2.6285,-0.56371 -3.4202,-1.46747 -6.531,-7.45462 -1.3011,-2.50427 -2.9352,-5.24411 -3.6313,-6.08854 -1.1351,-1.37714 -1.4438,-1.52232 -2.996,-1.40899 l -1.7304,0.12633 -0.2093,7.53384 -0.2093,7.53383 -4.8561,0.11739 c -4.1346,0.0999 -4.943,0.0127 -5.4411,-0.58727 z m 21.3093,-25.83695 c 2.3997,-1.33163 3.4311,-5.80241 1.9842,-8.60042 -1.1814,-2.28474 -2.4635,-2.75207 -7.848,-2.86079 -2.6932,-0.0544 -4.9999,0.068 -5.126,0.27206 -0.1261,0.204 -0.1064,2.93242 0.044,6.06315 l 0.273,5.69223 4.853,-0.0148 c 3.1391,-0.01 5.1946,-0.20433 5.82,-0.5514 z m 20.4486,25.81853 c -0.1534,-0.15347 -0.279,-10.88918 -0.279,-23.85714 0,-18.57888 0.1109,-23.57994 0.5232,-23.58671 0.2877,-0.005 6.3672,-0.12145 13.5099,-0.25939 10.7157,-0.20693 13.0676,-0.15054 13.449,0.32251 0.2543,0.31531 0.5909,2.55092 0.7479,4.96803 0.2643,4.06566 0.225,4.43162 -0.524,4.88731 -0.5054,0.30748 -3.2479,0.53331 -7.2984,0.60099 -3.5688,0.0596 -7.1719,0.18818 -8.007,0.28567 l -1.5184,0.17726 v 3.45954 3.45953 l 1.308,0.26159 c 0.7193,0.14388 3.8982,0.26159 7.064,0.26159 4.4153,0 5.869,0.1361 6.241,0.58429 0.3174,0.38239 0.4435,2.08177 0.3652,4.91792 l -0.1198,4.33363 -7.0971,0.11515 c -5.0354,0.0817 -7.1917,0.26408 -7.4228,0.62782 -0.1791,0.28197 -0.3285,2.06294 -0.3321,3.95771 -0.01,4.11403 -0.8121,3.73276 8.5738,4.0636 3.6832,0.12983 7.356,0.38418 8.1617,0.56522 l 1.4649,0.32917 0.1273,3.54159 c 0.07,1.94788 0.014,4.15372 -0.1236,4.90188 l -0.2509,1.36027 h -14.1419 c -7.778,0 -14.2674,-0.12556 -14.4209,-0.27903 z m -36.8634,-49.68633 c 0.1258,-0.32795 0.5927,-0.69143 1.0375,-0.80775 0.9655,-0.25249 0.6716,0.36684 -0.462,0.97353 -0.6359,0.34032 -0.7564,0.3056 -0.5755,-0.16578 z m -96.9319,-9.64861 c -4.2142,-1.17261 -7.8459,-4.11309 -10.238,-8.28932 -2.1959,-3.8337 -2.308,-4.97001 -2.3134,-23.444456 v -17.05576 l 1.9881,0.003 c 1.0934,0.001 3.5317,0.12267 5.4183,0.26955 l 3.4302,0.26704 0.1274,15.73985 c 0.1218,15.036266 0.1673,15.826066 1.0195,17.668696 0.4906,1.06088 1.5442,2.42638 2.3415,3.03447 1.2694,0.96821 1.84,1.1056 4.5918,1.1056 3.4451,0 5.0513,-0.72544 6.7853,-3.06459 0.8482,-1.14421 0.8793,-1.69309 0.9945,-17.553266 0.086,-11.79132 0.2568,-16.53832 0.6118,-16.96608 0.3889,-0.46852 1.488,-0.5576 5.2051,-0.42186 2.5916,0.0946 4.859,0.31876 5.0385,0.49803 0.1795,0.17928 0.3853,7.60888 0.4572,16.51022 0.1477,18.281076 0.01,19.460576 -2.8301,23.834816 -2.8565,4.40317 -6.7996,7.10791 -11.7236,8.04173 -2.9676,0.56279 -8.5669,0.47177 -10.8991,-0.17718 z m -52.6075,-0.76134 c -0.1862,-0.28775 -0.3995,-11.23531 -0.4739,-24.3279 l -0.1353,-23.804716 11.2268,0.30769 c 9.2179,0.25263 11.5802,0.44113 13.202,1.05346 4.4898,1.69522 9.0311,6.29915 10.2085,10.34923 0.4539,1.5615 0.6155,3.47236 0.5166,6.11058 -0.1836,4.89665 -1.4607,7.638726 -5.1645,11.088956 -3.9748,3.70273 -5.4874,4.27736 -12.3977,4.70994 -3.2222,0.20171 -6.0362,0.47655 -6.2533,0.61075 -0.2204,0.13618 -0.3949,3.15558 -0.3949,6.83235 0,4.56619 -0.1541,6.74248 -0.5022,7.09058 -0.7105,0.7105 -9.3706,0.69207 -9.8321,-0.0209 z m 20.7646,-25.671456 c 2.2148,-0.88617 3.0346,-2.24737 3.0959,-5.14011 0.1037,-4.9011 -2.3091,-6.55875 -9.1135,-6.26115 -2.1949,0.096 -4.1936,0.37731 -4.4414,0.62514 -0.3071,0.30712 -0.3555,2.19999 -0.1519,5.94501 l 0.2987,5.49442 h 4.3272 c 2.973,0 4.8461,-0.2076 5.985,-0.66331 z m 64.7313,25.252906 c -0.106,-0.51795 -0.3109,-11.4481 -0.4553,-24.28922 l -0.2625,-23.347486 4.93,0.11816 4.93,0.11817 3.2284,4.39474 c 4.5204,6.15335 6.7414,9.40245 8.5966,12.57584 0.881,1.507 2.8211,4.48858 4.3112,6.625736 3.3377,4.78675 3.3621,4.74139 2.9037,-5.396016 -0.182,-4.02495 -0.3422,-9.69327 -0.3561,-12.59626 l -0.025,-5.27817 2.1974,-0.26393 c 3.0722,-0.36902 7.5347,-0.32421 8.175,0.0821 0.6355,0.40324 0.8228,13.08843 0.503,34.072776 l -0.2024,13.28948 -1.2557,0.23135 c -0.6906,0.12725 -2.851,0.17405 -4.8009,0.10401 l -3.5452,-0.12735 -2.1052,-2.99549 c -1.1578,-1.64752 -3.3157,-4.66106 -4.7953,-6.69674 -1.4796,-2.03569 -3.8131,-5.67681 -5.1855,-8.09137 -2.7601,-4.85623 -6.1513,-10.061436 -6.1353,-9.417446 0.013,0.50286 -0.3835,27.071156 -0.41,27.514956 -0.01,0.17265 -2.2754,0.31391 -5.0334,0.31391 -4.8642,0 -5.0204,-0.0283 -5.2073,-0.94173 z m 46.7891,0.31841 c -0.089,-0.23268 -0.1128,-11.06459 -0.053,-24.07092 l 0.1087,-23.647866 13.5062,-0.11044 13.5063,-0.11045 0.4184,1.10044 c 0.7239,1.90404 1.0181,8.42376 0.4129,9.15288 -0.4437,0.53465 -1.8719,0.6405 -8.6419,0.6405 h -8.1104 v 2.03432 c 0,1.11887 -0.1198,2.90816 -0.2662,3.97619 l -0.2662,1.94188 5.8119,0.0241 c 3.1966,0.0133 6.5653,0.15732 7.4861,0.32012 l 1.6742,0.296 0.3503,3.29186 c 0.1927,1.810516 0.2364,3.899126 0.097,4.641356 l -0.2532,1.3495 -7.1316,0.22448 c -3.9225,0.12346 -7.2137,0.30651 -7.314,0.40676 -0.1003,0.10026 -0.2308,1.8631 -0.29,3.91743 l -0.1078,3.73513 6.9061,0.25779 c 9.3267,0.34815 10.834,0.6075 11.3452,1.95204 0.2216,0.58265 0.3493,2.8483 0.2838,5.03476 l -0.119,3.9754 -14.5961,0.0449 c -9.4897,0.0292 -14.6526,-0.10312 -14.7578,-0.37816 z m 65.4535,0.30961 -13.7074,-0.11628 v -23.65528 c 0,-18.542086 0.1131,-23.697076 0.5232,-23.848616 0.2877,-0.10634 6.5085,-0.24168 13.824,-0.30078 11.4462,-0.0925 13.3566,-0.0199 13.701,0.52038 0.5001,0.78477 0.5444,9.49593 0.05,9.80163 -0.1998,0.12346 -4.108,0.30802 -8.6849,0.41014 l -8.3216,0.18568 -0.1199,3.7645 -0.1199,3.7645 7.1105,0.14016 c 3.9948,0.0787 7.2871,0.32356 7.5136,0.55871 0.2218,0.2302 0.4663,2.39617 0.5433,4.813276 l 0.1401,4.39474 -7.4292,0.11429 -7.4292,0.11429 v 1.35062 c 0,0.74284 -0.1231,2.62196 -0.2698,4.17581 l -0.2669,2.82519 4.9785,0.003 c 4.6586,0.003 11.5866,0.56922 13.2447,1.08207 0.638,0.19733 0.7325,0.80579 0.7325,4.71864 0,4.57586 -0.3142,5.60165 -1.6533,5.39789 -0.3568,-0.0543 -6.8171,-0.15104 -14.3561,-0.21499 z m -60.6315,-51.376616 c -3.0688,-1.6679 -2.7738,-7.95165 0.4517,-9.61963 2.768,-1.43139 5.7092,-0.42874 7.0862,2.41565 1.4359,2.96624 0.9186,5.63164 -1.386,7.14168 -1.2945,0.8482 -4.6434,0.88212 -6.1519,0.0623 z m 12.1847,-0.47511 c -1.7062,-1.21033 -2.0654,-1.92428 -2.0778,-4.12905 -0.021,-3.78329 2.3675,-6.36485 5.5006,-5.94461 2.595,0.34806 4.0931,2.04576 4.3961,4.98163 0.2283,2.21121 0.17,2.40037 -1.1995,3.89478 -1.2103,1.32069 -1.7684,1.60005 -3.5062,1.7551 -1.5299,0.1365 -2.3386,-0.008 -3.1132,-0.55785 z"
       id="path1" />
  </g>
</svg>
